<svg width="610" height="103" viewBox="0 0 610 103" fill="none" xmlns="http://www.w3.org/2000/svg">
<path d="M147.675 78.75C143.875 78.75 140.5 77.95 137.55 76.35C134.6 74.7 132.25 72.45 130.5 69.6C128.8 66.75 127.95 63.5 127.95 59.85C127.95 56.25 128.775 53.05 130.425 50.25C132.125 47.4 134.425 45.15 137.325 43.5C140.225 41.8 143.45 40.95 147 40.95C150.5 40.95 153.575 41.75 156.225 43.35C158.925 44.9 161.025 47.05 162.525 49.8C164.075 52.5 164.85 55.575 164.85 59.025C164.85 59.675 164.8 60.35 164.7 61.05C164.65 61.7 164.525 62.45 164.325 63.3L133.875 63.375V56.025L159.75 55.95L155.775 59.025C155.675 56.875 155.275 55.075 154.575 53.625C153.925 52.175 152.95 51.075 151.65 50.325C150.4 49.525 148.85 49.125 147 49.125C145.05 49.125 143.35 49.575 141.9 50.475C140.45 51.325 139.325 52.55 138.525 54.15C137.775 55.7 137.4 57.55 137.4 59.7C137.4 61.9 137.8 63.825 138.6 65.475C139.45 67.075 140.65 68.325 142.2 69.225C143.75 70.075 145.55 70.5 147.6 70.5C149.45 70.5 151.125 70.2 152.625 69.6C154.125 68.95 155.425 68 156.525 66.75L162.3 72.525C160.55 74.575 158.4 76.125 155.85 77.175C153.35 78.225 150.625 78.75 147.675 78.75ZM195.301 78V57.225C195.301 55.075 194.626 53.325 193.276 51.975C191.926 50.625 190.176 49.95 188.026 49.95C186.626 49.95 185.376 50.25 184.276 50.85C183.176 51.45 182.301 52.3 181.651 53.4C181.051 54.5 180.751 55.775 180.751 57.225L176.926 55.275C176.926 52.425 177.526 49.95 178.726 47.85C179.976 45.7 181.676 44.025 183.826 42.825C186.026 41.625 188.501 41.025 191.251 41.025C193.901 41.025 196.276 41.7 198.376 43.05C200.476 44.35 202.126 46.075 203.326 48.225C204.526 50.325 205.126 52.6 205.126 55.05V78H195.301ZM170.926 78V41.775H180.751V78H170.926ZM217.926 78V26.7H227.751V78H217.926ZM209.451 50.4V41.775H236.226V50.4H209.451ZM258.197 78.75C254.397 78.75 251.022 77.95 248.072 76.35C245.122 74.7 242.772 72.45 241.022 69.6C239.322 66.75 238.472 63.5 238.472 59.85C238.472 56.25 239.297 53.05 240.947 50.25C242.647 47.4 244.947 45.15 247.847 43.5C250.747 41.8 253.972 40.95 257.522 40.95C261.022 40.95 264.097 41.75 266.747 43.35C269.447 44.9 271.547 47.05 273.047 49.8C274.597 52.5 275.372 55.575 275.372 59.025C275.372 59.675 275.322 60.35 275.222 61.05C275.172 61.7 275.047 62.45 274.847 63.3L244.397 63.375V56.025L270.272 55.95L266.297 59.025C266.197 56.875 265.797 55.075 265.097 53.625C264.447 52.175 263.472 51.075 262.172 50.325C260.922 49.525 259.372 49.125 257.522 49.125C255.572 49.125 253.872 49.575 252.422 50.475C250.972 51.325 249.847 52.55 249.047 54.15C248.297 55.7 247.922 57.55 247.922 59.7C247.922 61.9 248.322 63.825 249.122 65.475C249.972 67.075 251.172 68.325 252.722 69.225C254.272 70.075 256.072 70.5 258.122 70.5C259.972 70.5 261.647 70.2 263.147 69.6C264.647 68.95 265.947 68 267.047 66.75L272.822 72.525C271.072 74.575 268.922 76.125 266.372 77.175C263.872 78.225 261.147 78.75 258.197 78.75ZM281.449 78V41.775H291.274V78H281.449ZM291.274 57.975L287.449 55.425C287.899 50.975 289.199 47.475 291.349 44.925C293.499 42.325 296.599 41.025 300.649 41.025C302.399 41.025 303.974 41.325 305.374 41.925C306.774 42.475 308.049 43.4 309.199 44.7L303.049 51.75C302.499 51.15 301.824 50.7 301.024 50.4C300.274 50.1 299.399 49.95 298.399 49.95C296.299 49.95 294.574 50.625 293.224 51.975C291.924 53.275 291.274 55.275 291.274 57.975ZM332.603 78.75C330.003 78.75 327.653 78.225 325.553 77.175C323.453 76.075 321.778 74.6 320.528 72.75C319.278 70.9 318.603 68.775 318.503 66.375V53.55C318.603 51.15 319.278 49.025 320.528 47.175C321.828 45.275 323.503 43.775 325.553 42.675C327.653 41.575 330.003 41.025 332.603 41.025C335.953 41.025 338.953 41.85 341.603 43.5C344.253 45.15 346.328 47.4 347.828 50.25C349.378 53.1 350.153 56.325 350.153 59.925C350.153 63.475 349.378 66.675 347.828 69.525C346.328 72.375 344.253 74.625 341.603 76.275C338.953 77.925 335.953 78.75 332.603 78.75ZM312.503 93.15V41.775H322.328V51.3L320.678 60.075L322.253 68.85V93.15H312.503ZM330.878 69.675C332.678 69.675 334.278 69.275 335.678 68.475C337.078 67.625 338.153 66.475 338.903 65.025C339.703 63.525 340.103 61.8 340.103 59.85C340.103 57.95 339.703 56.275 338.903 54.825C338.153 53.325 337.078 52.175 335.678 51.375C334.278 50.525 332.678 50.1 330.878 50.1C329.128 50.1 327.553 50.525 326.153 51.375C324.753 52.175 323.653 53.325 322.853 54.825C322.103 56.275 321.728 57.95 321.728 59.85C321.728 61.8 322.103 63.525 322.853 65.025C323.653 66.475 324.728 67.625 326.078 68.475C327.478 69.275 329.078 69.675 330.878 69.675ZM356.595 78V41.775H366.42V78H356.595ZM366.42 57.975L362.595 55.425C363.045 50.975 364.345 47.475 366.495 44.925C368.645 42.325 371.745 41.025 375.795 41.025C377.545 41.025 379.12 41.325 380.52 41.925C381.92 42.475 383.195 43.4 384.345 44.7L378.195 51.75C377.645 51.15 376.97 50.7 376.17 50.4C375.42 50.1 374.545 49.95 373.545 49.95C371.445 49.95 369.72 50.625 368.37 51.975C367.07 53.275 366.42 55.275 366.42 57.975ZM387.796 78V41.775H397.696V78H387.796ZM392.746 35.925C391.146 35.925 389.821 35.4 388.771 34.35C387.721 33.25 387.196 31.9 387.196 30.3C387.196 28.75 387.721 27.425 388.771 26.325C389.821 25.225 391.146 24.675 392.746 24.675C394.396 24.675 395.721 25.225 396.721 26.325C397.771 27.425 398.296 28.75 398.296 30.3C398.296 31.9 397.771 33.25 396.721 34.35C395.721 35.4 394.396 35.925 392.746 35.925ZM418.85 78.825C416.8 78.825 414.775 78.55 412.775 78C410.825 77.45 409.025 76.7 407.375 75.75C405.725 74.75 404.3 73.55 403.1 72.15L408.95 66.225C410.2 67.625 411.65 68.675 413.3 69.375C414.95 70.075 416.775 70.425 418.775 70.425C420.375 70.425 421.575 70.2 422.375 69.75C423.225 69.3 423.65 68.625 423.65 67.725C423.65 66.725 423.2 65.95 422.3 65.4C421.45 64.85 420.325 64.4 418.925 64.05C417.525 63.65 416.05 63.225 414.5 62.775C413 62.275 411.55 61.65 410.15 60.9C408.75 60.1 407.6 59.025 406.7 57.675C405.85 56.275 405.425 54.475 405.425 52.275C405.425 49.975 405.975 47.975 407.075 46.275C408.225 44.575 409.85 43.25 411.95 42.3C414.05 41.35 416.525 40.875 419.375 40.875C422.375 40.875 425.075 41.4 427.475 42.45C429.925 43.5 431.95 45.075 433.55 47.175L427.625 53.1C426.525 51.75 425.275 50.775 423.875 50.175C422.525 49.575 421.05 49.275 419.45 49.275C418 49.275 416.875 49.5 416.075 49.95C415.325 50.4 414.95 51.025 414.95 51.825C414.95 52.725 415.375 53.425 416.225 53.925C417.125 54.425 418.275 54.875 419.675 55.275C421.075 55.625 422.525 56.05 424.025 56.55C425.575 57 427.025 57.65 428.375 58.5C429.775 59.35 430.9 60.475 431.75 61.875C432.65 63.275 433.1 65.075 433.1 67.275C433.1 70.825 431.825 73.65 429.275 75.75C426.725 77.8 423.25 78.825 418.85 78.825ZM457.05 78.75C453.25 78.75 449.875 77.95 446.925 76.35C443.975 74.7 441.625 72.45 439.875 69.6C438.175 66.75 437.325 63.5 437.325 59.85C437.325 56.25 438.15 53.05 439.8 50.25C441.5 47.4 443.8 45.15 446.7 43.5C449.6 41.8 452.825 40.95 456.375 40.95C459.875 40.95 462.95 41.75 465.6 43.35C468.3 44.9 470.4 47.05 471.9 49.8C473.45 52.5 474.225 55.575 474.225 59.025C474.225 59.675 474.175 60.35 474.075 61.05C474.025 61.7 473.9 62.45 473.7 63.3L443.25 63.375V56.025L469.125 55.95L465.15 59.025C465.05 56.875 464.65 55.075 463.95 53.625C463.3 52.175 462.325 51.075 461.025 50.325C459.775 49.525 458.225 49.125 456.375 49.125C454.425 49.125 452.725 49.575 451.275 50.475C449.825 51.325 448.7 52.55 447.9 54.15C447.15 55.7 446.775 57.55 446.775 59.7C446.775 61.9 447.175 63.825 447.975 65.475C448.825 67.075 450.025 68.325 451.575 69.225C453.125 70.075 454.925 70.5 456.975 70.5C458.825 70.5 460.5 70.2 462 69.6C463.5 68.95 464.8 68 465.9 66.75L471.675 72.525C469.925 74.575 467.775 76.125 465.225 77.175C462.725 78.225 460 78.75 457.05 78.75ZM497.326 78.75C493.876 78.75 490.751 77.95 487.951 76.35C485.201 74.7 483.001 72.475 481.351 69.675C479.751 66.875 478.951 63.75 478.951 60.3C478.951 56.85 479.751 53.75 481.351 51C483.001 48.2 485.201 46 487.951 44.4C490.751 42.8 493.876 42 497.326 42C499.976 42 502.451 42.5 504.751 43.5C507.051 44.5 509.001 45.9 510.601 47.7L507.151 51.225C505.951 49.875 504.501 48.85 502.801 48.15C501.101 47.4 499.276 47.025 497.326 47.025C494.826 47.025 492.601 47.6 490.651 48.75C488.701 49.9 487.176 51.475 486.076 53.475C484.976 55.425 484.426 57.7 484.426 60.3C484.426 62.85 484.976 65.15 486.076 67.2C487.176 69.2 488.701 70.775 490.651 71.925C492.601 73.075 494.826 73.65 497.326 73.65C499.326 73.65 501.176 73.3 502.876 72.6C504.576 71.85 506.026 70.8 507.226 69.45L510.751 72.975C509.101 74.825 507.101 76.25 504.751 77.25C502.451 78.25 499.976 78.75 497.326 78.75ZM543.767 78V57.3C543.767 54.2 542.842 51.7 540.992 49.8C539.192 47.85 536.792 46.875 533.792 46.875C531.742 46.875 529.942 47.325 528.392 48.225C526.842 49.125 525.617 50.35 524.717 51.9C523.817 53.45 523.367 55.225 523.367 57.225L520.967 55.875C520.967 53.225 521.592 50.85 522.842 48.75C524.092 46.65 525.767 45 527.867 43.8C530.017 42.6 532.467 42 535.217 42C537.917 42 540.317 42.625 542.417 43.875C544.517 45.075 546.142 46.75 547.292 48.9C548.492 51.05 549.092 53.55 549.092 56.4V78H543.767ZM518.117 78V24.9H523.367V78H518.117ZM574.213 78.75C570.863 78.75 567.863 77.95 565.213 76.35C562.563 74.7 560.463 72.5 558.913 69.75C557.413 67 556.663 63.9 556.663 60.45C556.663 56.95 557.413 53.825 558.913 51.075C560.463 48.275 562.563 46.075 565.213 44.475C567.863 42.825 570.838 42 574.138 42C576.838 42 579.238 42.55 581.338 43.65C583.488 44.7 585.213 46.2 586.513 48.15C587.863 50.05 588.688 52.275 588.988 54.825V65.85C588.688 68.4 587.863 70.65 586.513 72.6C585.213 74.55 583.488 76.075 581.338 77.175C579.238 78.225 576.863 78.75 574.213 78.75ZM575.038 73.725C578.688 73.725 581.613 72.5 583.813 70.05C586.063 67.6 587.188 64.375 587.188 60.375C587.188 57.725 586.663 55.4 585.613 53.4C584.613 51.35 583.188 49.775 581.338 48.675C579.538 47.525 577.413 46.95 574.963 46.95C572.463 46.95 570.238 47.525 568.288 48.675C566.388 49.825 564.863 51.425 563.713 53.475C562.613 55.475 562.063 57.775 562.063 60.375C562.063 62.975 562.613 65.275 563.713 67.275C564.863 69.275 566.413 70.85 568.363 72C570.313 73.15 572.538 73.725 575.038 73.725ZM586.888 78V68.55L587.938 59.85L586.888 51.375V42.75H592.138V78H586.888ZM602.785 78V42.75H608.11V78H602.785ZM605.41 35.1C604.41 35.1 603.56 34.75 602.86 34.05C602.16 33.3 601.81 32.425 601.81 31.425C601.81 30.375 602.16 29.5 602.86 28.8C603.56 28.1 604.41 27.75 605.41 27.75C606.51 27.75 607.385 28.1 608.035 28.8C608.735 29.5 609.085 30.375 609.085 31.425C609.085 32.425 608.735 33.3 608.035 34.05C607.385 34.75 606.51 35.1 605.41 35.1Z" fill="white"/>
<path fill-rule="evenodd" clip-rule="evenodd" d="M5.49605 41.745V61.2168C5.49605 80.7549 20.7522 96.5937 39.5715 96.5937H48.4604C67.2797 96.5937 82.5359 80.7549 82.5359 61.2168V41.745H5.49605ZM1.64881 36.0391C0.738199 36.0391 0 36.8055 0 37.7508V61.2168C0 83.9062 17.7168 102.3 39.5715 102.3H48.4604C70.3151 102.3 88.0319 83.9062 88.0319 61.2168V37.7508C88.0319 36.8055 87.2937 36.0391 86.3831 36.0391H1.64881Z" fill="white"/>
<mask id="path-3-inside-1_3352_2296" fill="white">
<path fill-rule="evenodd" clip-rule="evenodd" d="M96.3359 50.7608H85.9391V75.7006C91.9394 73.9791 96.3359 68.3833 96.3359 61.746V50.7608ZM85.9391 84.7001C96.7623 82.8222 105 73.2598 105 61.746V44.6091C105 43.153 103.836 41.9727 102.401 41.9727H77.2751V85.0345H82.0403C83.3693 85.0345 84.6719 84.92 85.9391 84.7001Z"/>
</mask>
<path fill-rule="evenodd" clip-rule="evenodd" d="M96.3359 50.7608H85.9391V75.7006C91.9394 73.9791 96.3359 68.3833 96.3359 61.746V50.7608ZM85.9391 84.7001C96.7623 82.8222 105 73.2598 105 61.746V44.6091C105 43.153 103.836 41.9727 102.401 41.9727H77.2751V85.0345H82.0403C83.3693 85.0345 84.6719 84.92 85.9391 84.7001Z" fill="white"/>
<path d="M85.9391 50.7608V40.7608H75.9391V50.7608H85.9391ZM96.3359 50.7608H106.336V40.7608H96.3359V50.7608ZM85.9391 75.7006H75.9391V88.9728L88.6968 85.3128L85.9391 75.7006ZM85.9391 84.7001L87.6487 94.5529L87.6487 94.5529L85.9391 84.7001ZM77.2751 41.9727V31.9727H67.2751V41.9727H77.2751ZM77.2751 85.0345H67.2751V95.0345H77.2751V85.0345ZM85.9391 60.7608H96.3359V40.7608H85.9391V60.7608ZM95.9391 75.7006V50.7608H75.9391V75.7006H95.9391ZM86.3359 61.746C86.3359 63.8883 84.9269 65.5876 83.1815 66.0883L88.6968 85.3128C98.9518 82.3707 106.336 72.8784 106.336 61.746H86.3359ZM86.3359 50.7608V61.746H106.336V50.7608H86.3359ZM94.9999 61.746C94.9999 68.4161 90.2419 73.8041 84.2296 74.8473L87.6487 94.5529C103.283 91.8402 115 78.1036 115 61.746H94.9999ZM94.9999 44.6091V61.746H115V44.6091H94.9999ZM102.401 51.9727C98.1797 51.9727 94.9999 48.5413 94.9999 44.6091H115C115 37.7648 109.493 31.9727 102.401 31.9727V51.9727ZM82.0403 75.0345H77.2751V95.0345H82.0403V75.0345ZM84.2296 74.8473C83.5244 74.9697 82.7937 75.0345 82.0403 75.0345V95.0345C83.945 95.0345 85.8195 94.8703 87.6487 94.5529L84.2296 74.8473ZM77.2751 51.9727H102.401V31.9727H77.2751V51.9727ZM87.2751 85.0345V41.9727H67.2751V85.0345H87.2751Z" fill="white" mask="url(#path-3-inside-1_3352_2296)"/>
<path d="M7.39005 61.7688V43.3477H80.9863V61.7688C80.9863 80.1936 66.3216 94.9854 48.4086 94.9854H39.9677C22.0547 94.9854 7.39005 80.1936 7.39005 61.7688Z" fill="white" stroke="white" stroke-width="10"/>
<path d="M38.8726 16.2999C38.8756 16.1212 38.7684 16.0298 38.5984 15.9823C36.0134 15.4764 35.9508 15.5051 35.4824 12.9035C35.4544 12.7242 35.3475 12.618 35.1611 12.6149C34.9748 12.6117 34.8644 12.7142 34.8303 12.8925C34.2432 15.4612 34.1823 15.3856 31.6117 15.8637C31.4401 15.9055 31.3299 15.9931 31.3269 16.1719C31.3238 16.3508 31.431 16.442 31.6011 16.4896C34.154 17.0546 34.2177 16.9663 34.717 19.5683C34.7453 19.7328 34.852 19.8538 35.0382 19.857C35.2246 19.8601 35.3353 19.7428 35.3691 19.5794C35.9566 16.9958 35.9871 17.0261 38.5878 16.6081C38.7593 16.5663 38.8695 16.4788 38.8726 16.2999Z" fill="white" stroke="white" stroke-width="0.00141"/>
<path d="M55.2712 17.1488C55.513 17.1488 55.634 17.0045 55.6945 16.7779C56.3193 13.3376 56.2791 13.2552 59.7866 12.5753C60.0284 12.5342 60.1696 12.39 60.1696 12.1427C60.1696 11.8955 60.0284 11.7513 59.7866 11.7101C56.2992 10.9891 56.4 10.9067 55.6945 7.50756C55.634 7.28096 55.513 7.13672 55.2712 7.13672C55.0292 7.13672 54.9083 7.28096 54.8478 7.50756C54.1423 10.9067 54.2632 10.9891 50.7558 11.7101C50.534 11.7513 50.3728 11.8955 50.3728 12.1427C50.3728 12.39 50.534 12.5342 50.7558 12.5753C54.2632 13.2964 54.2229 13.3376 54.8478 16.7779C54.9083 17.0045 55.0292 17.1488 55.2712 17.1488ZM45.5147 31.3221C45.8977 31.3221 46.1598 31.0749 46.2 30.7041C46.9257 25.2036 47.1071 25.2036 52.6708 24.1119C53.0337 24.05 53.2957 23.8028 53.2957 23.4114C53.2957 23.0406 53.0337 22.7728 52.6708 22.711C47.1071 21.9282 46.9055 21.7427 46.2 16.1393C46.1598 15.7685 45.8977 15.5007 45.5147 15.5007C45.1518 15.5007 44.8898 15.7685 44.8494 16.1599C44.1842 21.6809 43.902 21.6604 38.3787 22.711C38.0158 22.7934 37.7538 23.0406 37.7538 23.4114C37.7538 23.8234 38.0159 24.05 38.4593 24.1119C43.9423 25.0183 44.1842 25.1625 44.8494 30.6629C44.8898 31.0749 45.1518 31.3221 45.5147 31.3221Z" fill="white" stroke="white" stroke-width="0.00141"/>
<path d="M44.2402 11.8245C44.3276 11.8245 44.3713 11.7735 44.3932 11.6934C44.6189 10.4772 44.6044 10.4481 45.8715 10.2077C45.9589 10.1932 46.0099 10.1422 46.0099 10.0548C46.0099 9.96743 45.9589 9.91644 45.8715 9.90187C44.6116 9.64702 44.6481 9.61787 44.3932 8.41625C44.3713 8.33615 44.3276 8.28516 44.2402 8.28516C44.1528 8.28516 44.1091 8.33615 44.0873 8.41625C43.8324 9.61787 43.8761 9.64702 42.6089 9.90187C42.5288 9.91644 42.4706 9.96743 42.4706 10.0548C42.4706 10.1422 42.5288 10.1932 42.6089 10.2077C43.8761 10.4627 43.8615 10.4772 44.0873 11.6934C44.1091 11.7735 44.1528 11.8245 44.2402 11.8245Z" fill="white" stroke="white" stroke-width="0.00141"/>
<path d="M39.524 5.89888C39.6697 5.89888 39.7425 5.8139 39.7789 5.68039C40.1552 3.65341 40.1309 3.60488 42.2429 3.20431C42.3885 3.18007 42.4735 3.09509 42.4735 2.94942C42.4735 2.80379 42.3885 2.71881 42.2429 2.69452C40.143 2.26977 40.2037 2.22119 39.7789 0.218489C39.7425 0.0849822 39.6697 0 39.524 0C39.3783 0 39.3055 0.0849822 39.2691 0.218489C38.8443 2.22119 38.9171 2.26977 36.8052 2.69452C36.6717 2.71881 36.5746 2.80379 36.5746 2.94942C36.5746 3.09509 36.6717 3.18007 36.8052 3.20431C38.9171 3.62917 38.8928 3.65341 39.2691 5.68039C39.3055 5.8139 39.3783 5.89888 39.524 5.89888Z" fill="white" stroke="white" stroke-width="0.00141"/>
</svg>

