<svg width="610" height="100" viewBox="0 0 610 100" fill="none" xmlns="http://www.w3.org/2000/svg">
<path d="M147.675 77.75C143.875 77.75 140.5 76.95 137.55 75.35C134.6 73.7 132.25 71.45 130.5 68.6C128.8 65.75 127.95 62.5 127.95 58.85C127.95 55.25 128.775 52.05 130.425 49.25C132.125 46.4 134.425 44.15 137.325 42.5C140.225 40.8 143.45 39.95 147 39.95C150.5 39.95 153.575 40.75 156.225 42.35C158.925 43.9 161.025 46.05 162.525 48.8C164.075 51.5 164.85 54.575 164.85 58.025C164.85 58.675 164.8 59.35 164.7 60.05C164.65 60.7 164.525 61.45 164.325 62.3L133.875 62.375V55.025L159.75 54.95L155.775 58.025C155.675 55.875 155.275 54.075 154.575 52.625C153.925 51.175 152.95 50.075 151.65 49.325C150.4 48.525 148.85 48.125 147 48.125C145.05 48.125 143.35 48.575 141.9 49.475C140.45 50.325 139.325 51.55 138.525 53.15C137.775 54.7 137.4 56.55 137.4 58.7C137.4 60.9 137.8 62.825 138.6 64.475C139.45 66.075 140.65 67.325 142.2 68.225C143.75 69.075 145.55 69.5 147.6 69.5C149.45 69.5 151.125 69.2 152.625 68.6C154.125 67.95 155.425 67 156.525 65.75L162.3 71.525C160.55 73.575 158.4 75.125 155.85 76.175C153.35 77.225 150.625 77.75 147.675 77.75ZM195.301 77V56.225C195.301 54.075 194.626 52.325 193.276 50.975C191.926 49.625 190.176 48.95 188.026 48.95C186.626 48.95 185.376 49.25 184.276 49.85C183.176 50.45 182.301 51.3 181.651 52.4C181.051 53.5 180.751 54.775 180.751 56.225L176.926 54.275C176.926 51.425 177.526 48.95 178.726 46.85C179.976 44.7 181.676 43.025 183.826 41.825C186.026 40.625 188.501 40.025 191.251 40.025C193.901 40.025 196.276 40.7 198.376 42.05C200.476 43.35 202.126 45.075 203.326 47.225C204.526 49.325 205.126 51.6 205.126 54.05V77H195.301ZM170.926 77V40.775H180.751V77H170.926ZM217.926 77V25.7H227.751V77H217.926ZM209.451 49.4V40.775H236.226V49.4H209.451ZM258.197 77.75C254.397 77.75 251.022 76.95 248.072 75.35C245.122 73.7 242.772 71.45 241.022 68.6C239.322 65.75 238.472 62.5 238.472 58.85C238.472 55.25 239.297 52.05 240.947 49.25C242.647 46.4 244.947 44.15 247.847 42.5C250.747 40.8 253.972 39.95 257.522 39.95C261.022 39.95 264.097 40.75 266.747 42.35C269.447 43.9 271.547 46.05 273.047 48.8C274.597 51.5 275.372 54.575 275.372 58.025C275.372 58.675 275.322 59.35 275.222 60.05C275.172 60.7 275.047 61.45 274.847 62.3L244.397 62.375V55.025L270.272 54.95L266.297 58.025C266.197 55.875 265.797 54.075 265.097 52.625C264.447 51.175 263.472 50.075 262.172 49.325C260.922 48.525 259.372 48.125 257.522 48.125C255.572 48.125 253.872 48.575 252.422 49.475C250.972 50.325 249.847 51.55 249.047 53.15C248.297 54.7 247.922 56.55 247.922 58.7C247.922 60.9 248.322 62.825 249.122 64.475C249.972 66.075 251.172 67.325 252.722 68.225C254.272 69.075 256.072 69.5 258.122 69.5C259.972 69.5 261.647 69.2 263.147 68.6C264.647 67.95 265.947 67 267.047 65.75L272.822 71.525C271.072 73.575 268.922 75.125 266.372 76.175C263.872 77.225 261.147 77.75 258.197 77.75ZM281.449 77V40.775H291.274V77H281.449ZM291.274 56.975L287.449 54.425C287.899 49.975 289.199 46.475 291.349 43.925C293.499 41.325 296.599 40.025 300.649 40.025C302.399 40.025 303.974 40.325 305.374 40.925C306.774 41.475 308.049 42.4 309.199 43.7L303.049 50.75C302.499 50.15 301.824 49.7 301.024 49.4C300.274 49.1 299.399 48.95 298.399 48.95C296.299 48.95 294.574 49.625 293.224 50.975C291.924 52.275 291.274 54.275 291.274 56.975ZM332.603 77.75C330.003 77.75 327.653 77.225 325.553 76.175C323.453 75.075 321.778 73.6 320.528 71.75C319.278 69.9 318.603 67.775 318.503 65.375V52.55C318.603 50.15 319.278 48.025 320.528 46.175C321.828 44.275 323.503 42.775 325.553 41.675C327.653 40.575 330.003 40.025 332.603 40.025C335.953 40.025 338.953 40.85 341.603 42.5C344.253 44.15 346.328 46.4 347.828 49.25C349.378 52.1 350.153 55.325 350.153 58.925C350.153 62.475 349.378 65.675 347.828 68.525C346.328 71.375 344.253 73.625 341.603 75.275C338.953 76.925 335.953 77.75 332.603 77.75ZM312.503 92.15V40.775H322.328V50.3L320.678 59.075L322.253 67.85V92.15H312.503ZM330.878 68.675C332.678 68.675 334.278 68.275 335.678 67.475C337.078 66.625 338.153 65.475 338.903 64.025C339.703 62.525 340.103 60.8 340.103 58.85C340.103 56.95 339.703 55.275 338.903 53.825C338.153 52.325 337.078 51.175 335.678 50.375C334.278 49.525 332.678 49.1 330.878 49.1C329.128 49.1 327.553 49.525 326.153 50.375C324.753 51.175 323.653 52.325 322.853 53.825C322.103 55.275 321.728 56.95 321.728 58.85C321.728 60.8 322.103 62.525 322.853 64.025C323.653 65.475 324.728 66.625 326.078 67.475C327.478 68.275 329.078 68.675 330.878 68.675ZM356.595 77V40.775H366.42V77H356.595ZM366.42 56.975L362.595 54.425C363.045 49.975 364.345 46.475 366.495 43.925C368.645 41.325 371.745 40.025 375.795 40.025C377.545 40.025 379.12 40.325 380.52 40.925C381.92 41.475 383.195 42.4 384.345 43.7L378.195 50.75C377.645 50.15 376.97 49.7 376.17 49.4C375.42 49.1 374.545 48.95 373.545 48.95C371.445 48.95 369.72 49.625 368.37 50.975C367.07 52.275 366.42 54.275 366.42 56.975ZM387.796 77V40.775H397.696V77H387.796ZM392.746 34.925C391.146 34.925 389.821 34.4 388.771 33.35C387.721 32.25 387.196 30.9 387.196 29.3C387.196 27.75 387.721 26.425 388.771 25.325C389.821 24.225 391.146 23.675 392.746 23.675C394.396 23.675 395.721 24.225 396.721 25.325C397.771 26.425 398.296 27.75 398.296 29.3C398.296 30.9 397.771 32.25 396.721 33.35C395.721 34.4 394.396 34.925 392.746 34.925ZM418.85 77.825C416.8 77.825 414.775 77.55 412.775 77C410.825 76.45 409.025 75.7 407.375 74.75C405.725 73.75 404.3 72.55 403.1 71.15L408.95 65.225C410.2 66.625 411.65 67.675 413.3 68.375C414.95 69.075 416.775 69.425 418.775 69.425C420.375 69.425 421.575 69.2 422.375 68.75C423.225 68.3 423.65 67.625 423.65 66.725C423.65 65.725 423.2 64.95 422.3 64.4C421.45 63.85 420.325 63.4 418.925 63.05C417.525 62.65 416.05 62.225 414.5 61.775C413 61.275 411.55 60.65 410.15 59.9C408.75 59.1 407.6 58.025 406.7 56.675C405.85 55.275 405.425 53.475 405.425 51.275C405.425 48.975 405.975 46.975 407.075 45.275C408.225 43.575 409.85 42.25 411.95 41.3C414.05 40.35 416.525 39.875 419.375 39.875C422.375 39.875 425.075 40.4 427.475 41.45C429.925 42.5 431.95 44.075 433.55 46.175L427.625 52.1C426.525 50.75 425.275 49.775 423.875 49.175C422.525 48.575 421.05 48.275 419.45 48.275C418 48.275 416.875 48.5 416.075 48.95C415.325 49.4 414.95 50.025 414.95 50.825C414.95 51.725 415.375 52.425 416.225 52.925C417.125 53.425 418.275 53.875 419.675 54.275C421.075 54.625 422.525 55.05 424.025 55.55C425.575 56 427.025 56.65 428.375 57.5C429.775 58.35 430.9 59.475 431.75 60.875C432.65 62.275 433.1 64.075 433.1 66.275C433.1 69.825 431.825 72.65 429.275 74.75C426.725 76.8 423.25 77.825 418.85 77.825ZM457.05 77.75C453.25 77.75 449.875 76.95 446.925 75.35C443.975 73.7 441.625 71.45 439.875 68.6C438.175 65.75 437.325 62.5 437.325 58.85C437.325 55.25 438.15 52.05 439.8 49.25C441.5 46.4 443.8 44.15 446.7 42.5C449.6 40.8 452.825 39.95 456.375 39.95C459.875 39.95 462.95 40.75 465.6 42.35C468.3 43.9 470.4 46.05 471.9 48.8C473.45 51.5 474.225 54.575 474.225 58.025C474.225 58.675 474.175 59.35 474.075 60.05C474.025 60.7 473.9 61.45 473.7 62.3L443.25 62.375V55.025L469.125 54.95L465.15 58.025C465.05 55.875 464.65 54.075 463.95 52.625C463.3 51.175 462.325 50.075 461.025 49.325C459.775 48.525 458.225 48.125 456.375 48.125C454.425 48.125 452.725 48.575 451.275 49.475C449.825 50.325 448.7 51.55 447.9 53.15C447.15 54.7 446.775 56.55 446.775 58.7C446.775 60.9 447.175 62.825 447.975 64.475C448.825 66.075 450.025 67.325 451.575 68.225C453.125 69.075 454.925 69.5 456.975 69.5C458.825 69.5 460.5 69.2 462 68.6C463.5 67.95 464.8 67 465.9 65.75L471.675 71.525C469.925 73.575 467.775 75.125 465.225 76.175C462.725 77.225 460 77.75 457.05 77.75ZM497.326 77.75C493.876 77.75 490.751 76.95 487.951 75.35C485.201 73.7 483.001 71.475 481.351 68.675C479.751 65.875 478.951 62.75 478.951 59.3C478.951 55.85 479.751 52.75 481.351 50C483.001 47.2 485.201 45 487.951 43.4C490.751 41.8 493.876 41 497.326 41C499.976 41 502.451 41.5 504.751 42.5C507.051 43.5 509.001 44.9 510.601 46.7L507.151 50.225C505.951 48.875 504.501 47.85 502.801 47.15C501.101 46.4 499.276 46.025 497.326 46.025C494.826 46.025 492.601 46.6 490.651 47.75C488.701 48.9 487.176 50.475 486.076 52.475C484.976 54.425 484.426 56.7 484.426 59.3C484.426 61.85 484.976 64.15 486.076 66.2C487.176 68.2 488.701 69.775 490.651 70.925C492.601 72.075 494.826 72.65 497.326 72.65C499.326 72.65 501.176 72.3 502.876 71.6C504.576 70.85 506.026 69.8 507.226 68.45L510.751 71.975C509.101 73.825 507.101 75.25 504.751 76.25C502.451 77.25 499.976 77.75 497.326 77.75ZM543.767 77V56.3C543.767 53.2 542.842 50.7 540.992 48.8C539.192 46.85 536.792 45.875 533.792 45.875C531.742 45.875 529.942 46.325 528.392 47.225C526.842 48.125 525.617 49.35 524.717 50.9C523.817 52.45 523.367 54.225 523.367 56.225L520.967 54.875C520.967 52.225 521.592 49.85 522.842 47.75C524.092 45.65 525.767 44 527.867 42.8C530.017 41.6 532.467 41 535.217 41C537.917 41 540.317 41.625 542.417 42.875C544.517 44.075 546.142 45.75 547.292 47.9C548.492 50.05 549.092 52.55 549.092 55.4V77H543.767ZM518.117 77V23.9H523.367V77H518.117ZM574.213 77.75C570.863 77.75 567.863 76.95 565.213 75.35C562.563 73.7 560.463 71.5 558.913 68.75C557.413 66 556.663 62.9 556.663 59.45C556.663 55.95 557.413 52.825 558.913 50.075C560.463 47.275 562.563 45.075 565.213 43.475C567.863 41.825 570.838 41 574.138 41C576.838 41 579.238 41.55 581.338 42.65C583.488 43.7 585.213 45.2 586.513 47.15C587.863 49.05 588.688 51.275 588.988 53.825V64.85C588.688 67.4 587.863 69.65 586.513 71.6C585.213 73.55 583.488 75.075 581.338 76.175C579.238 77.225 576.863 77.75 574.213 77.75ZM575.038 72.725C578.688 72.725 581.613 71.5 583.813 69.05C586.063 66.6 587.188 63.375 587.188 59.375C587.188 56.725 586.663 54.4 585.613 52.4C584.613 50.35 583.188 48.775 581.338 47.675C579.538 46.525 577.413 45.95 574.963 45.95C572.463 45.95 570.238 46.525 568.288 47.675C566.388 48.825 564.863 50.425 563.713 52.475C562.613 54.475 562.063 56.775 562.063 59.375C562.063 61.975 562.613 64.275 563.713 66.275C564.863 68.275 566.413 69.85 568.363 71C570.313 72.15 572.538 72.725 575.038 72.725ZM586.888 77V67.55L587.938 58.85L586.888 50.375V41.75H592.138V77H586.888ZM602.785 77V41.75H608.11V77H602.785ZM605.41 34.1C604.41 34.1 603.56 33.75 602.86 33.05C602.16 32.3 601.81 31.425 601.81 30.425C601.81 29.375 602.16 28.5 602.86 27.8C603.56 27.1 604.41 26.75 605.41 26.75C606.51 26.75 607.385 27.1 608.035 27.8C608.735 28.5 609.085 29.375 609.085 30.425C609.085 31.425 608.735 32.3 608.035 33.05C607.385 33.75 606.51 34.1 605.41 34.1Z" fill="#121212"/>
<path fill-rule="evenodd" clip-rule="evenodd" d="M5.4963 40.4948V59.5394C5.4963 78.6487 20.7531 94.1399 39.5733 94.1399H48.4626C67.2828 94.1399 82.5396 78.6487 82.5396 59.5394V40.4948H5.4963ZM1.64889 34.9141C0.738233 34.9141 0 35.6636 0 36.5883V59.5394C0 81.7309 17.7176 99.7207 39.5733 99.7207H48.4626C70.3183 99.7207 88.0359 81.7309 88.0359 59.5394V36.5883C88.0359 35.6636 87.2977 34.9141 86.387 34.9141H1.64889Z" fill="#121212"/>
<mask id="path-3-inside-1_3352_2296" fill="white">
<path fill-rule="evenodd" clip-rule="evenodd" d="M96.3355 49.2555H85.9383V73.648C91.9388 71.9644 96.3355 66.4913 96.3355 59.9996V49.2555ZM85.9383 82.4501C96.7619 80.6133 105 71.2608 105 59.9996V43.2387C105 41.8146 103.836 40.6602 102.4 40.6602H77.2739V82.7772H82.0393C83.3684 82.7772 84.671 82.6651 85.9383 82.4501Z"/>
</mask>
<path fill-rule="evenodd" clip-rule="evenodd" d="M96.3355 49.2555H85.9383V73.648C91.9388 71.9644 96.3355 66.4913 96.3355 59.9996V49.2555ZM85.9383 82.4501C96.7619 80.6133 105 71.2608 105 59.9996V43.2387C105 41.8146 103.836 40.6602 102.4 40.6602H77.2739V82.7772H82.0393C83.3684 82.7772 84.671 82.6651 85.9383 82.4501Z" fill="#121212"/>
<path d="M85.9383 49.2555V39.2555H75.9383V49.2555H85.9383ZM96.3355 49.2555H106.335V39.2555H96.3355V49.2555ZM85.9383 73.648H75.9383V86.84L88.6398 83.2762L85.9383 73.648ZM85.9383 82.4501L87.6113 92.3091L87.6113 92.3091L85.9383 82.4501ZM77.2739 40.6602V30.6602H67.2739V40.6602H77.2739ZM77.2739 82.7772H67.2739V92.7772H77.2739V82.7772ZM85.9383 59.2555H96.3355V39.2555H85.9383V59.2555ZM95.9383 73.648V49.2555H75.9383V73.648H95.9383ZM86.3355 59.9996C86.3355 61.845 85.0814 63.5022 83.2368 64.0198L88.6398 83.2762C98.7961 80.4265 106.335 71.1377 106.335 59.9996H86.3355ZM86.3355 49.2555V59.9996H106.335V49.2555H86.3355ZM94.9998 59.9996C94.9998 66.2447 90.4186 71.5468 84.2652 72.591L87.6113 92.3091C103.105 89.6799 115 76.277 115 59.9996H94.9998ZM94.9998 43.2387V59.9996H115V43.2387H94.9998ZM102.4 50.6602C98.3888 50.6602 94.9998 47.4127 94.9998 43.2387H115C115 36.2165 109.283 30.6602 102.4 30.6602V50.6602ZM82.0393 72.7772H77.2739V92.7772H82.0393V72.7772ZM84.2652 72.591C83.5485 72.7127 82.8055 72.7772 82.0393 72.7772V92.7772C83.9312 92.7772 85.7935 92.6176 87.6113 92.3091L84.2652 72.591ZM77.2739 50.6602H102.4V30.6602H77.2739V50.6602ZM87.2739 82.7772V40.6602H67.2739V82.7772H87.2739Z" fill="#121212" mask="url(#path-3-inside-1_3352_2296)"/>
<path d="M7.39209 60.1963V42.2891H80.9918V60.1963C80.9918 78.0529 66.4309 92.5743 48.4126 92.5743H39.9713C21.9529 92.5743 7.39209 78.0529 7.39209 60.1963Z" fill="#121212" stroke="#121212" stroke-width="10"/>
<path d="M38.8769 16.068C38.8799 15.8931 38.7727 15.8038 38.6027 15.7573C36.0175 15.2625 35.955 15.2906 35.4865 12.7461C35.4586 12.5707 35.3516 12.4669 35.1653 12.4638C34.979 12.4607 34.8685 12.5609 34.8344 12.7353C34.2473 15.2477 34.1864 15.1737 31.6157 15.6413C31.4441 15.6822 31.3339 15.7679 31.3309 15.9428C31.3278 16.1177 31.435 16.2069 31.605 16.2535C34.1581 16.8061 34.2218 16.7197 34.7211 19.2647C34.7494 19.4255 34.8561 19.5439 35.0424 19.547C35.2287 19.5501 35.3395 19.4353 35.3733 19.2755C35.9607 16.7486 35.9912 16.7782 38.5921 16.3694C38.7636 16.3285 38.8738 16.2429 38.8769 16.068Z" fill="#121212" stroke="#121212" stroke-width="0.00141"/>
<path d="M55.2687 16.558C55.5106 16.558 55.6316 16.4169 55.6921 16.1953C56.317 12.8304 56.2767 12.7499 59.7843 12.0849C60.0262 12.0447 60.1673 11.9036 60.1673 11.6618C60.1673 11.42 60.0262 11.2789 59.7843 11.2386C56.2968 10.5335 56.3976 10.4529 55.6921 7.12832C55.6316 6.9067 55.5106 6.76562 55.2687 6.76562C55.0268 6.76562 54.9059 6.9067 54.8454 7.12832C54.1398 10.4529 54.2608 10.5335 50.7531 11.2386C50.5314 11.2789 50.3701 11.42 50.3701 11.6618C50.3701 11.9036 50.5314 12.0447 50.7531 12.0849C54.2608 12.7902 54.2204 12.8304 54.8454 16.1953C54.9059 16.4169 55.0268 16.558 55.2687 16.558ZM45.5119 30.4203C45.8949 30.4203 46.1569 30.1785 46.1972 29.8159C46.923 24.4361 47.1044 24.4361 52.6683 23.3683C53.0311 23.3078 53.2931 23.066 53.2931 22.6832C53.2931 22.3205 53.0311 22.0586 52.6683 21.9981C47.1044 21.2325 46.9027 21.0511 46.1972 15.5706C46.1569 15.208 45.8949 14.9461 45.5119 14.9461C45.149 14.9461 44.8869 15.208 44.8466 15.5908C44.1813 20.9907 43.8991 20.9706 38.3756 21.9981C38.0127 22.0788 37.7506 22.3205 37.7506 22.6832C37.7506 23.0861 38.0127 23.3078 38.4562 23.3683C43.9394 24.2548 44.1813 24.3959 44.8466 29.7756C44.8869 30.1785 45.149 30.4203 45.5119 30.4203Z" fill="#121212" stroke="#121212" stroke-width="0.00141"/>
<path d="M44.2431 11.4617C44.3305 11.4617 44.3742 11.4118 44.3961 11.3334C44.6218 10.1439 44.6073 10.1155 45.8745 9.8804C45.9619 9.86618 46.0129 9.81631 46.0129 9.73082C46.0129 9.64536 45.9619 9.59549 45.8745 9.58124C44.6146 9.33198 44.651 9.30347 44.3961 8.12822C44.3742 8.04987 44.3305 8 44.2431 8C44.1557 8 44.112 8.04987 44.0902 8.12822C43.8353 9.30347 43.879 9.33198 42.6118 9.58124C42.5317 9.59549 42.4734 9.64536 42.4734 9.73082C42.4734 9.81631 42.5317 9.86618 42.6118 9.8804C43.879 10.1297 43.8644 10.1439 44.0902 11.3334C44.112 11.4118 44.1557 11.4617 44.2431 11.4617Z" fill="#121212" stroke="#121212" stroke-width="0.00141"/>
<path d="M39.5223 5.76944C39.6679 5.76944 39.7408 5.68632 39.7772 5.55575C40.1535 3.57324 40.1292 3.52578 42.2412 3.134C42.3869 3.11029 42.4719 3.02717 42.4719 2.88469C42.4719 2.74227 42.3869 2.65915 42.2412 2.63539C40.1413 2.21996 40.202 2.17245 39.7772 0.213694C39.7408 0.0831174 39.6679 0 39.5223 0C39.3766 0 39.3038 0.0831174 39.2674 0.213694C38.8426 2.17245 38.9154 2.21996 36.8034 2.63539C36.6699 2.65915 36.5728 2.74227 36.5728 2.88469C36.5728 3.02717 36.6699 3.11029 36.8034 3.134C38.9154 3.54953 38.8911 3.57324 39.2674 5.55575C39.3038 5.68632 39.3766 5.76944 39.5223 5.76944Z" fill="#121212" stroke="#121212" stroke-width="0.00141"/>
</svg>

